<mxfile host="app.diagrams.net" modified="2024-02-21T04:20:35.493Z" agent="Mozilla/5.0 (Windows NT 10.0; Win64; x64) AppleWebKit/537.36 (KHTML, like Gecko) Chrome/123.0.0.0 Safari/537.36 Edg/123.0.0.0" version="23.1.5" etag="vvSBZJxrmdQxnHESdEzj" type="github">
  <diagram name="第 1 页" id="lYL_edL4yhy9aaUwazNH">
    <mxGraphModel>
      <root>
        <mxCell id="0" />
        <mxCell id="1" parent="0" />
      </root>
    </mxGraphModel>
  </diagram>
</mxfile>
